<?xml version="1.0" encoding="UTF-8"?>
<svg id="Layer_1" data-name="Layer 1" xmlns="http://www.w3.org/2000/svg" viewBox="0 0 640.56 250">
  <defs>
    <style>
      .cls-1 {
        fill: #414042;
        stroke-width: 0px;
      }
    </style>
  </defs>
  <path class="cls-1" d="m627.24,56.55c-17.42,7.4-29.9,26.58-29.47,45.37.11,4.73.39,9.46.53,14.2.23,7.11.34,14.24-1.42,21.2-1.75,6.96-5.45,12.52-12.35,15.26-3.08,1.22-6.5,1.57-9.33-.63-2.99-2.31-2.62-5.76-2.09-9.02.42-2.5,1.46-4.82,2.74-6.99,3.57-6.01,8.39-10.74,14.77-13.67,2.89-1.33,2.94-2.88,1.17-5.11-3.61-4.58-9.91-5.6-14.68-2.24-3.51,2.49-6.47,5.6-9.41,8.76-10.55,11.31-22.08,21.46-35.84,28.79-4.48,2.39-9.17,4.16-14.35,4.23-3.71.05-5.8-2.05-5.52-5.46.5-6.11,2.21-11.93,6.79-16.45-.81,3.7.42,5.46,3.98,5.69,2.14.13,4.16-.5,6.01-1.42,18.43-9.15,33.59-22.04,44.76-39.42,1.35-2.1,2.39-4.45,3.27-6.79,3.12-8.32-1.47-14.35-10.3-13.5-7.03.68-13.57,2.99-19.78,6.35-15.21,8.23-26.64,20.45-36.86,34.15-12.03,16.11-27.12,28.88-44.52,38.91-4.26,2.47-8.88,4.14-13.89,4.3-4.48.14-6.72-2.11-6.21-6.55.59-5.12,2.59-9.76,5.62-14.4,1.33,4.74,4.42,5.35,8.14,4.38,4.49-1.18,8.53-3.38,12.4-5.87,9.41-6.05,17.62-13.52,25.51-21.39,5.45-5.41,9.56-11.67,12.63-18.66,1.75-3.96,2.44-8.03-.45-11.79-2.73-3.56-6.62-3.46-10.55-2.92-8.24,1.11-15.75,4.18-22.68,8.63-20.44,13.15-34.95,31.3-44.71,53.39-1.26,2.86-2.09,5.85-2.55,8.96-1.92,12.89,5.35,20.73,18.28,19.69,11.65-.94,21.45-6.4,30.96-12.59,5.94-3.86,11.37-8.42,17.08-13.28.1,2.24.1,3.98.28,5.69.93,8.64,6.31,13.66,15.02,13.83,2.64.06,5.33-.21,7.95-.69,10.6-1.91,19.62-7.33,28.35-13.28,3.4-2.31,6.63-4.86,10.05-7.37,2.45,12.2,9.81,18.17,21.45,17.61,18.91-.91,34.48-16.44,35.2-35.32.39-10.5.45-21.03.72-31.55.2-8.09,2.15-15.42,8.32-21.32,5.43-5.2,11.54-9.23,18.33-12.3v-4.44c-4.16-6.13-7.55-7.37-13.32-4.92Zm-107.36,74.86c8.32-12.69,17.91-24.25,30.13-33.44,2.84-2.14,5.85-4.04,9.31-5.02,1.26-.35,2.75-.91,3.75.3,1.12,1.38.2,2.83-.53,4.1-2.23,3.85-4.94,7.36-8.06,10.53-10.52,10.68-21.75,20.38-35.6,26.61-.54-1.28.42-2.18,1.01-3.08Zm-31.19-30.41c2.24-1.35,5.52-3.67,7.61-1.13,1.85,2.24-.93,4.92-2.49,6.94-9.89,12.82-21.89,23.25-36.03,31.2-1.72.97-3.62,1.64-5.45,2.45,9.43-15.83,20.44-29.96,36.36-39.46Z"/>
  <path class="cls-1" d="m29.36,250c-3.33-1.16-6.8-2.04-9.96-3.55-7.47-3.56-11.06-10.54-9.5-17.72,1.61-7.41,9.45-14.08,16.84-14.29,1.95-.06,4.07-.09,5.11,1.89,1.1,2.1-.45,3.56-1.77,5.03-2.99,3.33-2.9,6.14.46,9.13,4.02,3.57,8.98,4.89,14.1,3.93,21.57-4.05,39.73-14.13,53.57-31.41,1.95-2.43,3.3-5.26,4.29-8.24,1.98-5.99-.05-9.76-6.22-11.27-5.59-1.37-11.2-.7-16.77.25-4.54.78-8.92,2.13-13.14,4.02-1.14.51-2.42,1.68-3.62.35-1.02-1.13-.44-2.54.02-3.79,2.29-6.25,6.14-11.43,12.4-13.79,7.83-2.96,15.03-7,22.13-11.26,23.69-14.24,45.99-30.35,65.4-50.18,8.74-8.93,16.57-18.57,21.76-30.09,5.14-11.42,1.64-17.09-11.01-17.71-10.95-.53-21.56,1.64-31.98,4.6-36.94,10.49-71.48,26.03-102.14,49.46-7.2,5.5-13.81,11.7-18.96,19.23-3.19,4.66-6.23,9.46-5.26,15.57.36,2.3-1,2.71-2.93,2.7-5.08,0-9.11-2.01-12.18-6.03v-7.12c5.89-17.18,18.16-29.31,32.4-39.46,40-28.52,84.11-47.09,133.06-53.42,8.26-1.07,16.58-.92,24.74,1.18,13.53,3.47,18.64,12.27,14.9,25.76-2.05,7.39-6.03,13.81-10.49,19.96-6.9,9.52-14.93,18.02-23.52,26-19.6,18.21-40.66,34.5-63.66,48.23-.73.44-1.41.96-2.27,1.55,16.59,5.8,20.31,14.77,12.73,30.53-4.12,8.56-10.27,15.59-17.47,21.64-16.22,13.65-34.12,24.03-55.35,27.71-.22.04-.39.39-.59.6-5.04,0-10.08,0-15.12,0Z"/>
  <path class="cls-1" d="m353.24,147.1c-.13-1.66-.28-3.4-1.86-4.26-1.84-.99-3.08.49-4.23,1.57-3.42,3.27-6.74,6.68-10.15,9.96-10.39,9.98-20.93,19.74-33.8,26.53-4.49,2.38-9.13,4.33-14.32,4.4-4.43.08-6.26-1.79-6.01-6.25.26-4.86,2.38-9.1,4.78-13.52,4.74,4.16,6.42,4.83,11.89,2.19,18.53-8.97,33.61-22,44.8-39.35,1.36-2.1,2.43-4.43,3.32-6.77,3.22-8.47-1.67-14.66-10.62-13.59-7.47.91-14.37,3.43-20.88,7.13-13.81,7.82-24.93,18.64-33.91,31.54-11.06,15.88-25.06,28.77-39.78,41.02-1.31,1.07-2.48,2.58-4.55,2.39-.79-2.13.42-3.81,1.21-5.47,11.02-23.23,24.28-45.11,40.04-65.45.77-.99,2.47-1.76,1.71-3.28-.74-1.5-2.5-1.43-3.98-1.41-6.78.11-12.23,3.04-16.71,8.03-7.26,8.08-13.15,17.13-19.08,26.19-10.64,16.2-23.67,30.34-38.82,42.48-1.82,1.46-4.2,4.24-6.49,2.31-1.99-1.66.2-4.43,1.18-6.43,10.97-22.59,23.85-44,39.35-63.82.75-.97,2.47-1.77,1.62-3.28-.78-1.41-2.48-1.5-3.98-1.43-6.39.25-11.75,2.75-16.08,7.45-8.71,9.42-16.05,19.88-21.96,31.17-4.49,8.58-10.4,15.75-17.39,22.27-6.18,5.76-12.38,11.49-19,16.76-.99.78-1.77,2.05-3.64,1.87.26-7.02,3.23-13.11,6.43-19.07,10.34-19.26,23.03-36.95,36.61-54.02,17.11-21.5,35.85-41.46,56.52-59.59,2.15-1.9,5.35-3.86,3.61-7.27-1.74-3.42-5.36-2.48-8.39-1.98-2.79.47-5.43,1.53-7.67,3.33-2.77,2.23-5.6,4.4-8.18,6.83-28.81,27.17-54.13,57.26-75.52,90.61-6.01,9.37-11.27,19.17-14.91,29.74-2.03,5.9-3.57,11.95-2.39,18.29.97,5.15,3.07,6.79,8.3,6.52,2.99-.15,5.81-1.06,8.52-2.34,6.78-3.2,12.62-7.71,18.13-12.72.92-.82,1.47-2.29,3.2-2.13-.09,1.21-.2,2.38-.23,3.55-.1,7.07,2.89,10,10.04,9.81,4.42-.11,8.39-1.69,12.23-3.67,6.78-3.51,12.54-8.39,18.08-13.57.86-.79,1.42-2.2,3.12-2.03-.1,1.02-.21,1.9-.29,2.78-.97,10.53,4.03,14.62,14.22,11.56,1.84-.55,3.6-1.4,5.31-2.26,7.36-3.71,13.57-8.96,19.42-14.69,1.07-1.06,1.77-2.78,3.71-2.77,1.32,12.16,7.8,17.2,19.95,15.71,6.11-.74,11.86-2.57,17.33-5.33,19.12-9.67,34.51-23.85,48.17-40.1,1.51-1.8,2.21-3.79,2.01-6.14Zm-29.52-22.4c2.2-1.51,4.62-2.67,7.25-3.27,1.14-.25,2.44-.53,3.23.68.64.98.14,2-.29,2.96-1.48,3.27-3.69,6.11-6.08,8.72-9.23,10.1-19.33,19.21-31.36,25.94-1.85,1.03-3.65,2.59-6.82,2.03,9.49-14.55,19.99-27.42,34.07-37.05Z"/>
  <path class="cls-1" d="m561.35.04c8.92-.02,17.84-.03,26.77-.04,2.22.68,3.96,1.99,5.12,4.01,2.04,3.55.68,6.9-3.28,7.88-1.27.31-2.64.31-3.96.33-69.16,1.07-134.26,17.31-194.34,52.15-12.97,7.52-25.13,16.23-36.71,25.75-2.78,2.28-5.33,4.76-6.7,8.14-.72,1.76-.87,3.77-3.6,3.64-2.72-.13-4.96-.92-6.3-3.4-1.26-2.32-1.3-4.82-.82-7.36,1-5.3,3.8-9.54,7.57-13.29,12.5-12.47,27.14-22,42.47-30.47,42.11-23.29,87.25-37.36,134.86-43.77,12.93-1.74,25.91-2.87,38.93-3.57Z"/>
  <path class="cls-1" d="m364.76,196.96c.31-4.44,2-9.66,3.95-14.78,6.41-16.83,15.33-32.37,25.06-47.44,20.04-31.04,42.28-60.43,66.92-87.97,3.26-3.64,6.67-7.16,10.23-10.5,4.58-4.29,14.37-5.07,19.61-1.82,1.89,1.17,3.02,2.4.83,4.46-20.94,19.67-38.14,42.52-55.41,65.29-15.58,20.54-30.33,41.69-42.81,64.3-6.66,12.06-13.02,24.29-14.87,38.27-.47,3.54-3.16,4.7-6.62,3.3-3.97-1.6-6.92-6.75-6.88-13.12Z"/>
  <path class="cls-1" d="m599.24,203.28c4.67-1.65,9.73-1.05,14.14-3.5-2.49-2.12-5.64-1.92-8.59-2.21-31.33-3.17-62.75-2.49-94.15-1.7-38.52.97-76.96,3.44-115.37,6.37-1.42.11-4.25,1.81-4.2-.97.04-2.39-.59-6.15,4.11-6.47,14.04-.96,28.05-2.31,42.09-3.34,43.59-3.18,87.2-6.16,130.92-6.77,16.14-.23,32.31-.69,48.31,2.19,4.1.74,8.13,1.91,11.3,4.82,3.95,3.63,3.08,10.1-1.9,11.59-8.77,2.62-17.74,2.21-26.66,0Z"/>
  <path class="cls-1" d="m120.59,241.94c-5.73-.75-10.55-2.14-15-4.63-1.39-.78-3.18-1.64-2.84-3.56.29-1.63,2.07-1.96,3.48-2.36,12.26-3.56,24.8-5.88,37.36-8,48.39-8.16,97.12-13.75,145.91-18.81,19.75-2.05,39.53-3.88,59.29-5.82,3.54-.35,6.19,2.56,5.2,6-.54,1.89-2.49,1.18-3.78,1.31-13.56,1.38-27.16,2.48-40.71,3.96-59.24,6.48-118.35,13.79-176.26,28.46-4.44,1.12-8.83,2.41-12.65,3.45Z"/>
  <path class="cls-1" d="m512.79,219.59q5.1-.25,4.38,5.14c-1.01,7.53-2.13,8.91-8.11,10.04-9.48,1.78-14.89-2.98-14.38-12.65.56-10.71,7.04-17.14,15.97-15.89,3.18.45,5.6,2,6.83,4.98.5,1.22,1.97,3.08.28,3.88-1.65.78-4.43,1.52-5.6-.62-1.28-2.34-2.69-3.45-5.22-2.9-2.65.58-3.77,2.67-4.5,5.02-.98,3.15-1.37,6.4-.76,9.64.61,3.22,4.02,4.57,6.92,3.02,1.46-.78,1.4-2.14,1.65-3.41.34-1.68-.91-1.56-1.92-1.54-1.36.02-2.3-.18-2.1-1.93.19-1.62.5-2.92,2.57-2.79,1.33.08,2.66.01,4,.01Z"/>
  <path class="cls-1" d="m539.13,206.35c-4.25-1.98-8.49-1.31-12.13,1.57-5.25,4.16-6.63,10.01-6.18,16.33.3,4.19,2.05,7.9,6.29,9.43,4.52,1.64,8.81.74,12.4-2.54,4-3.65,5.2-8.47,5.42-13.69-.15-4.6-1.14-8.93-5.81-11.11Zm-1.91,17.46c-.99,2.97-2.58,5.65-6.21,5.09-3.82-.57-3.36-3.87-3.5-6.23.08-3.55.4-6.63,2.14-9.35,1.2-1.89,2.97-2.92,5.26-2.49,2.53.47,3.06,2.52,3.25,4.65.24,2.83-.04,5.62-.93,8.32Z"/>
  <path class="cls-1" d="m581.59,216.31c1.52.99,5.27-2.62,4.98,2.24-.12,1.96-.81,3.08-2.95,2.86-.44-.05-.89.01-1.33.03-6.67.22-6.63.23-7.72,7.14-.32,2,.16,4.54-3.42,4.5-2.8-.04-4.03-.41-3.46-3.64,1.28-7.28,2.31-14.61,3.24-21.95.29-2.28,1.2-2.96,3.39-2.93,4.14.05,8.29-.2,12.43-.24,1.18-.01,3-.58,2.71,1.69-.21,1.64.03,3.76-2.74,3.61-1.62-.09-3.28.29-4.88.09-3.5-.44-5.34.8-5.2,4.47.17,4.44,3.72.35,4.95,2.14Z"/>
  <path class="cls-1" d="m554.79,233.19q-8.64.35-7.38-8.03c.85-5.69,1.85-11.36,2.43-17.08.4-3.86,3.1-2.87,5.22-2.87,2.99,0,1.55,2.22,1.39,3.54-.66,5.27-1.36,10.53-2.27,15.76-.46,2.62-.08,3.95,2.95,3.51,1.59-.23,3.24-.14,4.86-.12,1.37.02,3.16-.54,2.89,1.99-.2,1.9-.46,3.5-3.02,3.33-2.35-.15-4.72-.03-7.08-.03Z"/>
  <path class="cls-1" d="m40.08,208.29c-6.33-.04-10.32-5.87-7.75-11.55,5.61-12.35,13.3-23.44,21.3-34.3,21.73-29.51,45.07-57.67,70.7-83.91,5.88-6.02,12.42-7.57,20.21-5.48,1.87.5,4.05,1.08,4.53,3.14.5,2.14-1.86,2.75-3.12,3.88-12.45,11.27-23.38,23.98-34.35,36.62-19.04,21.95-37.71,44.2-54.19,68.19-4.28,6.23-8.51,12.5-11.54,19.47-1.11,2.56-2.91,4.06-5.82,3.95Z"/>
  <path class="cls-1" d="m518.81,134.52s.04-.03.06-.03c.01.03.03.06.04.1-.04-.03-.09-.08-.1-.08Z"/>
</svg>