<?xml version="1.0" encoding="UTF-8"?>
<svg id="Layer_1" data-name="Layer 1" xmlns="http://www.w3.org/2000/svg" viewBox="0 0 479.21 250">
  <defs>
    <style>
      .cls-1 {
        fill: #414042;
        stroke-width: 0px;
      }
    </style>
  </defs>
  <g>
    <path class="cls-1" d="m210.58,195.98c8.09,0,11.14,3.17,11.14,9.68v2.82c0,3.34-1.29,5.81-3.75,7.45,2.76,1.58,4.05,4.11,4.05,7.57v3.4c0,6.22-2.58,10.15-10.38,10.15h-34.84c-1.17,0-1.76-.59-1.76-1.76v-37.54c0-1.17.59-1.76,1.76-1.76h33.78Zm-26.57,17.07h24.05c3.87,0,5.04-1.17,5.04-3.46v-1.99c0-2.4-1.29-3.52-4.34-3.52h-23.99c-.53,0-.76.23-.76.76v8.21Zm0,6.39v8.74c0,.53.23.76.76.76h24.05c3.11,0,4.34-1.11,4.34-3.58v-2.23c0-2.41-1.23-3.7-5.1-3.7h-24.05Z"/>
    <path class="cls-1" d="m254.81,204.84c10.56,0,13.96,3.4,13.96,11.91v15.6c0,3.81-.94,4.69-4.34,4.69h-27.92c-6.92,0-9.03-2.52-9.03-8.33v-2.82c0-4.93,2.11-7.68,9.03-7.68h23.87v-1.11c0-3.75-1.29-5.22-6.39-5.22h-24.52c-.7,0-1.06-.29-1.06-1.06v-4.93c0-.7.35-1.06,1.06-1.06h25.34Zm5.57,23.76v-5.16h-21.47c-2.41,0-3.28,1-3.28,2.87v1.23c0,2.11.88,3.05,3.28,3.05h19.77c1.23,0,1.7-.53,1.7-1.99Z"/>
    <path class="cls-1" d="m284.83,204.84v-7.74c0-.88.47-1.29,1.29-1.29h5.81c.82,0,1.29.41,1.29,1.29v7.74h10.26c.76,0,1.06.35,1.06,1.06v4.81c0,.7-.29,1.06-1.06,1.06h-10.26v13.61c0,3.23,1.06,4.75,4.93,4.75h5.69c.76,0,1.06.35,1.06,1.06v4.81c0,.7-.29,1.06-1.06,1.06h-7.1c-9.38,0-11.91-3.34-11.91-11.67v-13.61h-5.57c-.7,0-1.06-.35-1.06-1.06v-4.81c0-.7.35-1.06,1.06-1.06h5.57Z"/>
    <path class="cls-1" d="m317.09,204.84v-7.74c0-.88.47-1.29,1.29-1.29h5.81c.82,0,1.29.41,1.29,1.29v7.74h10.26c.76,0,1.06.35,1.06,1.06v4.81c0,.7-.29,1.06-1.06,1.06h-10.26v13.61c0,3.23,1.06,4.75,4.93,4.75h5.69c.76,0,1.06.35,1.06,1.06v4.81c0,.7-.29,1.06-1.06,1.06h-7.1c-9.38,0-11.91-3.34-11.91-11.67v-13.61h-5.57c-.7,0-1.06-.35-1.06-1.06v-4.81c0-.7.35-1.06,1.06-1.06h5.57Z"/>
    <path class="cls-1" d="m377.62,204.84c8.04,0,10.15,2.52,10.15,9.62v5.57c0,2.52-1.06,3.34-3.34,3.34h-29.62v1.41c0,3.7,1.35,5.22,6.45,5.22h24.46c.7,0,1.06.35,1.06,1.06v4.93c0,.7-.35,1.06-1.06,1.06h-25.28c-10.56,0-13.96-3.34-13.96-11.85v-8.45c0-8.5,3.4-11.91,13.96-11.91h17.19Zm-22.82,13.31h23.76c.7,0,1-.23,1-1v-2.46c0-2.4-.88-3.34-3.58-3.34h-14.72c-5.1,0-6.45,1.47-6.45,5.22v1.58Z"/>
    <path class="cls-1" d="m426.6,204.84c.7,0,1.06.35,1.06,1.06v4.93c0,.76-.35,1.06-1.06,1.06h-15.6c-5.04,0-6.39,1.52-6.39,6.45v17.42c0,.88-.41,1.29-1.29,1.29h-5.75c-.88,0-1.35-.41-1.35-1.29v-19c0-8.5,3.4-11.91,13.96-11.91h16.42Z"/>
    <path class="cls-1" d="m478.27,204.84c.82,0,1.17.7.76,1.47l-22.52,39.71c-1.52,2.7-4.22,3.99-9.27,3.99h-4.11c-.7,0-1.06-.35-1.06-1.06v-4.81c0-.7.35-1.06,1.06-1.06h3.46c1.58,0,2.46-.41,2.99-1.35l3.17-5.57c-1.94-.18-2.82-.88-3.75-2.52l-15.84-27.33c-.41-.76-.06-1.47.76-1.47h6.75c.7,0,1.11.23,1.41.82l13.02,22.58c.65,1.06.88,1.35,1.41,1.35l13.78-23.93c.29-.59.7-.82,1.41-.82h6.57Z"/>
  </g>
  <g>
    <path class="cls-1" d="m89.6,204.84c.7,0,1.06.35,1.06,1.06v4.93c0,.76-.35,1.06-1.06,1.06h-22.76c-5.1,0-6.39,1.52-6.39,6.45v5.22c0,4.93,1.29,6.45,6.39,6.45h22.76c.7,0,1.06.35,1.06,1.06v4.93c0,.7-.35,1.06-1.06,1.06h-23.58c-10.56,0-13.96-3.34-13.96-11.85v-8.45c0-8.5,3.4-11.91,13.96-11.91h23.58Z"/>
    <path class="cls-1" d="m126.26,204.84c10.56,0,13.96,3.4,13.96,11.91v8.45c0,8.5-3.4,11.85-13.96,11.85h-16.6c-10.56,0-13.96-3.34-13.96-11.85v-8.45c0-8.5,3.4-11.91,13.96-11.91h16.6Zm-22.17,18.89c0,4.93,1.35,6.45,6.39,6.45h14.96c5.1,0,6.45-1.52,6.45-6.45v-5.57c0-4.93-1.35-6.39-6.45-6.39h-14.96c-5.04,0-6.39,1.47-6.39,6.39v5.57Z"/>
    <g>
      <polygon class="cls-1" points="42.83 195.8 0 195.8 0 197.95 0 202.87 0 229.97 0 235.01 0 237.04 42.83 237.04 42.83 229.97 7.07 229.97 7.07 202.87 42.83 202.87 42.83 195.8"/>
      <rect class="cls-1" x="14.92" y="212.13" width="25.99" height="6.32"/>
    </g>
  </g>
  <path class="cls-1" d="m391.55,76.41s20.39-7.41,20.39-36.37C411.94,1.57,367.18,0,367.18,0h-126.54v28.78h122.12c4.97,0,20.93,2.62,20.93,19.63s-16.22,18.58-16.22,18.58h-126.83v94.07h127.09c19.63,0,47.23-14.39,47.23-46.32s-23.42-38.33-23.42-38.33Zm-34.8,56.78h-87.4v-41.87h95.25s20.93.26,20.93,18.84-15.18,23.03-28.78,23.03Z"/>
  <rect class="cls-1" x="112.34" y="66.99" width="90.01" height="24.34"/>
  <polygon class="cls-1" points="208.9 28.78 208.9 0 92.72 0 64.2 0 64.2 28.78 64.2 132.27 64.2 161.06 92.72 161.06 208.9 161.06 208.9 132.27 92.72 132.27 92.72 28.78 208.9 28.78"/>
</svg>