<?xml version="1.0" encoding="UTF-8"?>
<svg id="Layer_1" data-name="Layer 1" xmlns="http://www.w3.org/2000/svg" viewBox="0 0 721.13 394.53">
  <defs>
    <style>
      .cls-1 {
        fill: #d5b880;
      }

      .cls-1, .cls-2 {
        stroke-width: 0px;
      }

      .cls-2 {
        fill: #fff;
      }
    </style>
  </defs>
  <g>
    <path class="cls-2" d="m33.02,249.59c-2.76-21.7,18.55-57.04,62.48-63.71,0,0,11.13,3.45,11.69,14.58.48,10.52-31.44,86.88-22.46,85.67,14.85-2.1,45.82-85.95,54.83-106.95,6.65,1.8,9.65,6.33,10.44,12.59,1.93,15.13-24.73,70.13-22.72,85.87.18,1.38.67,1.92,1.51,1.8,8.81-1.34,55.69-77.79,42.39-118.46,13.29-.93,19.54,5.6,20.9,16.3,4.71,36.99-44.28,114.85-59.24,117.12-13.99,2.13-20.81-6.65-22.94-13.34-6.57,11.12-13.71,18.91-21.12,20.03-16.93,2.57-23.47-10.77-23.71-17.12-.8-16.39,12.47-53.31,21.86-77.01-17.38,6.85-34.03,33.99-35.65,58.23-8.67,1.32-17.04-6.14-18.24-15.61Z"/>
    <path class="cls-2" d="m255.55,233.26c0-1.88-4.68-7.67-6.53-7.67-3.45,0-7.03,1.21-9.74,3.63-7.77,5.39-15.04,16.03-19.48,26,0,0-11.84,28.02-32.3,28.02-5.55,0-4.68-9.43-4.07-10.51,8.14,0,33.16-15.36,32.67-35.02-.12-5.12-8.14-12.12-15.16-12.12-18.37,0-34.89,28.96-34.89,49.97,0,7.68,7.77,21.01,19.23,21.01,9.32,0,17.05-3.33,23.3-7.93,3.46,3.11,10.03,7.93,17.63,7.93,11.59,0,20.59-6.2,20.59-19.93,0-11.18-1.97-27.89,4.32-37.58,0,0,4.43-4.45,4.43-5.8Zm-50.55,4.45c-.12.4-4.06,16.43-17.5,21.55,6.66-15.08,17.26-21.55,17.5-21.55Zm23.8,38.12c-1.48,4.98-4.56,6.6-7.89,6.6-1.5,0-3.05-.36-4.54-.88,8.79-9.65,12.92-20.4,12.92-20.4l-.05-.03c.6-1.43,1.19-2.86,1.9-4.28-.61,7.27-.98,14.27-2.34,18.99Z"/>
    <path class="cls-2" d="m320.15,248.33c-16.91,1.26-35.86,33.44-46.71,34.25-.99.07-1.52-1.74-1.78-3.58-.74-6,6.76-26.41,14.16-45.46,8.54,1.66,17.69-.26,24.84-5.67,2.78-2.1,5.3-4.74,6.8-8.04,1.3-2.85,1.75-6.26.94-9.29-.18-.65-.91-.84-1.34-.34-4.05,4.71-10.22,7.99-15.95,9.23-3.23.7-6.57.72-9.82.14,4.68-11.91,8.32-21.31,8.21-23.05-.35-5.7-11.01-13.1-13.97-12.88-.8.06-6.14,10.9-12.38,25.43-.1-.08-.19-.16-.29-.24-3.24-2.63-6.68-5.02-10.42-6.7-3.73-1.68-7.73-2.63-11.75-2.8-4.19-.18-8.48.52-12.23,2.57-3.75,2.05-6.93,5.56-8.29,9.9-1.23,3.94-.5,8.63,1.72,12.04.32.49.99.4,1.28-.11,3.22-5.68,9.81-8.57,15.98-8.23,6.56.35,12.68,3.75,18.07,7.85-8.56,21.39-16.74,45.43-16.1,55.66.77,12.32,16.63,19.33,20.72,19.03,14.79-1.1,33.31-28.77,49.94-30.01,2.96-.22,5.98.48,8.78,2.29,4.04-10.2-3.1-22.51-10.43-21.96Z"/>
    <path class="cls-2" d="m379.37,178.56s10.59,5.09,9.75,16.2c-.85,10.49-42.09,81.48-33.05,81.48s64.97-68.67,56.92-110.95c13.28,1.08,18.64,8.49,18.64,19.29,0,37.34-58.33,107.09-73.44,107.09-17.09,0-21.89-14.2-21.33-20.52,1.1-14.22,8.7-28.54,14.64-40.91,3.73-7.77,7.67-15.41,11.72-22.98.99-1.85,5.62-8.11,2.92-8.99-2.23-.73-8.79,4.21-10.7,5.46-9.77,6.35-17.9,15.76-22.96,26.9-6.39-4.61-10.02-13.4-8.95-21.69,1.5-11.64,11.54-18.25,20.54-22.61,11.08-5.37,23.23-7.77,35.31-7.77Z"/>
    <path class="cls-2" d="m686.88,271.02c-1.69-.95-3.08-1.73-4.76-2.68-1.37-.77-3.11-.31-3.88,1.05-4.22,7.37-17.94,29.09-37.12,36.37,11.42-26.03,26.73-52.48,26.58-55.79-.22-4.71-9.78-9.99-12.42-10.12-1.51-.08-6.79,8.99-12.82,20.66-8.89,13.85-19.71,29.82-23,29.78-.76,0-1.78-1.37-1.67-2.95.79-12.13,16.26-34.96,16.22-38.84-.05-4.47-9.83-10.15-12.48-10.27-1.32-.06-9.25,12.84-15.25,25.96-.13-.08-.2-.12-.34-.21,0,0-12.05,25.8-33.47,25.5-5.81-.08-5.02-9.02-4.38-10.03,8.53.17,34.51-13.55,33.81-31.85-.19-4.76-8.63-11.68-15.99-12.02-13.99-.65-26.81,13.28-32.66,28.84-3.27,6.12-13.73,24.56-22.69,24.4-1.03-.02-1.58-1.47-1.73-3.17-.85-9.92,29.38-62.18,29.33-66.29-.06-4.76-9.52-12.15-12.25-12.32-1.44-.09-20.49,31.43-30.12,55.72-2.96,5.83-13.54,25.52-22.61,25.39-1.03,0-1.58-1.5-1.72-3.23-.86-10.13,28.96-63.63,28.9-67.82-.08-4.84-9.52-12.38-12.22-12.55-1.41-.09-20,32.32-29.64,57.23-2.99,6.08-13.45,26.07-22.6,26.03-.78,0-1.82-1.51-1.73-3.27.73-13.55,16.12-37.99,16.05-42.31-.07-4.99-9.45-12.39-12.15-12.46-.77-.02-3.78,4.61-7.28,11.33-.15-1.09-.42-1.91-.69-2.59-1.85-3.43-12.36-9.34-15.2-9.39-12.35-.21-34.36,24.54-33.88,54.09.07,4.7,11.61,18.08,19.84,18.02,4.12-.03,9.8-6.9,14.95-14.97,2.19,8.89,13.48,14.98,17.34,14.98,8.8-.01,15.96-4.87,21.63-11.16,3.88,6.79,12.4,11.25,15.65,11.28,8.8.06,15.95-4.67,21.62-10.78,3.87,6.7,12.45,11.13,15.73,11.17,10.03.1,17.96-5.86,23.99-12.99,3.11,6.54,9.84,13.27,18.53,13.33,12.92.08,22.8-5.36,30.05-11.71,2.97,7.12,12.32,11.95,15.58,11.97,2.28.02,4.55-.71,6.93-1.91-2.1,4.38-3.83,7.92-4.57,9.76-3.77,2.08-57.19,8.66-54.91,39.47.61,8.21,12.91,19.78,21.27,19.64,18.61-.3,38.37-22.81,51.73-47.77,30.03-11.09,46.97-38.26,51.62-46.65.76-1.38.26-3.11-1.12-3.87Zm-96.58-23.88c-.13.37-4.07,15.21-18.1,19.65,6.8-14.06,17.82-19.65,18.1-19.65Zm-150.57,18.61c-4.22,10.23-15.87,21.9-18.18,21.9-.39,0-2.06-1.82-2.26-4.39-.91-11.39,12.07-42.08,21.34-41.66,1.99,3.3,1.23,12.27-.9,24.15Zm142.19,86.43c-.39,0-4.18-.19-4.36-3.84-.64-13.2,23.21-20.68,34.7-22.86-15.4,25.94-26.93,26.65-30.34,26.7Z"/>
  </g>
  <g>
    <path class="cls-1" d="m120.55,343.73h-8.28c-.5,0-1,.5-1,1v4.18c0,.57.5,1.08,1,1.08h2.02c.86,0,1.58.64,1.58,1.58v9.86c0,1.72-1.44,3.16-3.24,3.16h-2.73c-1.73,0-3.17-1.44-3.17-3.16v-31.38c0-1.79,1.44-3.23,3.17-3.23h2.3c1.8,0,3.17,1.44,3.17,3.23v4.32c0,.72.65,1.3,1.36,1.3h4.47c.71,0,1.36-.58,1.36-1.3v-4.89c0-4.89-3.96-8.78-8.78-8.78h-5.39c-4.82,0-8.78,3.89-8.78,8.78v32.23c0,5.04,4.03,9.07,9.06,9.07h5.26c4.96,0,9.06-4.03,9.06-9.07v-15.54c0-1.36-1.08-2.44-2.44-2.44Z"/>
    <path class="cls-1" d="m149.97,320.7h-5.83c-4.82,0-8.78,3.89-8.78,8.78v32.52c0,4.82,3.96,8.78,8.78,8.78h5.83c4.82,0,8.78-3.96,8.78-8.78v-32.52c0-4.89-3.96-8.78-8.78-8.78Zm1.65,40.73c0,1.72-1.44,3.16-3.24,3.16h-2.73c-1.73,0-3.16-1.44-3.16-3.16v-31.38c0-1.79,1.43-3.23,3.16-3.23h2.73c1.8,0,3.24,1.44,3.24,3.23v31.38Z"/>
    <path class="cls-1" d="m191.4,364.59h-8.06c-1.29,0-2.37-1.08-2.37-2.37v-39.94c0-.86-.72-1.58-1.65-1.58h-3.75c-.93,0-1.72.72-1.72,1.73v46.48c0,1.08.79,1.87,1.87,1.87h15.68c.58,0,1.08-.43,1.08-1.01v-4.17c0-.58-.5-1.01-1.08-1.01Z"/>
    <path class="cls-1" d="m222.62,320.7h-15.68c-1.08,0-1.87.79-1.87,1.8v46.55c0,.94.79,1.73,1.73,1.73h3.74c.93,0,1.65-.72,1.65-1.66v-16.76c0-1.37,1.08-2.37,2.38-2.37h4.89c.5,0,1.01-.51,1.01-1.08v-4.18c0-.5-.51-1-1.01-1h-4.89c-1.3,0-2.38-1.01-2.38-2.38v-12.09c0-1.29,1.08-2.37,2.38-2.37h8.05c.58,0,1.08-.5,1.08-1.08v-4.1c0-.58-.5-1.01-1.08-1.01Z"/>
    <path class="cls-1" d="m271.83,335.67h4.46c.79,0,1.37-.58,1.37-1.3v-4.89c0-4.89-3.96-8.78-8.78-8.78h-5.83c-4.82,0-8.78,3.89-8.78,8.78v32.52c0,4.82,3.96,8.78,8.78,8.78h5.83c4.82,0,8.78-3.96,8.78-8.78v-5.25c0-.72-.58-1.3-1.37-1.3h-4.46c-.72,0-1.29.58-1.29,1.3v4.68c0,1.72-1.44,3.16-3.24,3.16h-2.74c-1.72,0-3.16-1.44-3.16-3.16v-31.38c0-1.79,1.44-3.23,3.16-3.23h2.74c1.8,0,3.24,1.44,3.24,3.23v4.32c0,.72.57,1.3,1.29,1.3Z"/>
    <path class="cls-1" d="m305.06,321.64c-.07-.51-.57-.94-1.15-.94h-5.32c-.58,0-1.08.43-1.15.94l-7.92,48.2c-.07.51.29.94.79.94h5.25c.51,0,1.01-.43,1.08-.94l.44-2.44c.21-1.01,1.08-1.73,2.08-1.73h4.18c1.07,0,1.94.72,2.08,1.73l.43,2.44c.08.51.58.94,1.16.94h5.18c.5,0,.86-.43.79-.94l-7.92-48.2Zm-1.79,37.84h-3.96c-.43,0-.79-.43-.72-.79l2.23-17.7c.07-.5.86-.5.93,0l2.16,17.7c.07.36-.21.79-.64.79Z"/>
    <path class="cls-1" d="m348.45,369.84l-3.82-14.75c-.29-1.07-.07-2.23.72-3.02,1.58-1.44,2.59-3.52,2.59-5.9v-16.98c0-4.68-3.81-8.49-8.49-8.49h-13.96c-.5,0-.93.43-.93,1.01v48.13c0,.51.43.94.93.94h5.26c.5,0,.93-.43.93-.94v-13.09c0-1.3,1.08-2.37,2.37-2.37h1.59c.93,0,1.72.64,2.01,1.51l3.67,13.95c.14.51.72.94,1.22.94h5.26c.5,0,.79-.43.65-.94Zm-7.63-24.03c0,1.3-1.08,2.38-2.38,2.38h-4.39c-1.29,0-2.37-1.08-2.37-2.38v-16.55c0-1.29,1.08-2.37,2.37-2.37h4.39c1.3,0,2.38,1.08,2.38,2.37v16.55Z"/>
    <path class="cls-1" d="m365.85,331.06c0-2.66,1.08-4.89,4.03-4.89,6.26,0,2.52,7.77,5.4,7.77h4.53c1.51,0,1.29-1.73,1.29-2.73,0-6.19-5.03-11.23-11.22-11.23s-11.15,5.11-11.15,11.23c0,13.88,16.98,16.11,16.98,26.91,0,3.45-1.3,7.19-5.33,7.19-6.9,0-2.87-8.78-5.9-8.78h-4.46c-1.72,0-1.29,2.23-1.29,3.31,0,6.41,5.18,11.66,11.65,11.66,7.99,0,12.38-5.68,12.38-13.31,0-14.61-16.91-17.13-16.91-27.13Z"/>
  </g>
  <path class="cls-1" d="m409,153.09l-65.25-10.7,21.51-25.47c1.24-1.47.12-3.7-1.79-3.59l-33.59,1.88,26.27-53.2c1-2.02-1.33-4.04-3.19-2.77l-49.01,33.43-2.82-33.52c-.16-1.91-2.53-2.7-3.81-1.27l-22.22,24.86-19.7-63.12c-.57-2.42-4.08-2.17-4.31.3l-10.7,65.25-25.47-21.52c-1.47-1.24-3.7-.12-3.59,1.79l1.88,33.59-53.2-26.27c-2.02-1-4.04,1.33-2.77,3.19l33.43,49.01-33.52,2.82c-1.91.16-2.7,2.53-1.27,3.81,21.4,12.63,31.95,22.45,37.16,29.07,1.64,2.09,4.92,1.08,5.17-1.56,2.83-29.19,25.2-54.42,56.75-58.66,30.59-4.12,60.35,14.28,70.41,43.47,4.37,12.67,4.65,25.57,1.67,37.43-.65,2.58,2.16,4.61,4.39,3.14,9.85-6.47,31.3-16.23,77.87-27.1,2.42-.56,2.17-4.08-.3-4.31Z"/>
  <path class="cls-2" d="m554.41,374.85l-22.62-36.09c-.97-1.54-2.65-2.49-4.47-2.51l-4.13-.04-8.78-10.42c-.76-.9-1.87-1.47-3.05-1.55-1.18-.08-2.36.33-3.24,1.12l-9.9,8.91-6.46-11.13c-.86-1.47-2.43-2.39-4.13-2.4l-5.44-.06-8.49-10.29c-.84-1.02-2.13-1.58-3.44-1.49-1.32.08-2.52.81-3.21,1.93l-7.25,11.74-7.08,4.18c-1.18.71-1.99,1.91-2.2,3.27l-1.12,7.48-8.53,6.75-6.46-6.3c-.93-.9-2.21-1.35-3.49-1.23-1.28.12-2.45.79-3.19,1.84l-11,15.4h-1c-1.76-.03-3.39.85-4.34,2.33l-10.93,16.99c-.48.76.05,1.76.96,1.77l20.31-1c37.12-1.82,74.32-1.44,111.41,1.14l20.28,1.41c.91,0,1.47-.98.99-1.75Zm-5.45-2.35l-18.56-17.54-13.55,12.19c-.23.22-.58-.08-.42-.35l8.63-13.98-13.9-15.02c-1-1.07-2.68-1.13-3.74-.12l-12.17,11.48c-.52.48-.75,1.19-.63,1.89l2.01,11.53c.09.54-.58.87-.95.46l-15.04-16.87c-.61-.69-1.66-.73-2.32-.09l-13.36,13c-.35.34-.9-.07-.68-.5l9.9-19.34c.17-.34.26-.72.27-1.1l.11-11.3-2.64-4.65c-.64-1.13-2.31-1.01-2.78.21l-1.71,4.42c-.14.36-.37.67-.67.91l-7.7,5.96c-.49.38-.78.96-.79,1.58l-.06,5.79c0,.67-.31,1.3-.83,1.73l-11.64,9.49c-.65.53-.8,1.45-.37,2.17l3.09,5.1c.35.59.21,1.35-.34,1.77l-9.31,7.05c-.2.16-.47-.08-.34-.3l4.67-7.65c.41-.68.32-1.55-.23-2.12l-10.78-11.23c-.56-.59-1.53-.46-1.92.25l-7.59,13.68c-.21.37-.68.5-1.05.29l-1.47-.87c-.32-.18-.71-.15-.99.08l-13.49,10.9c-.16.13-.39-.07-.27-.25l8.52-13.26c.4-.62,1.09-.99,1.83-.99l1.57.02c.61.01,1.18-.28,1.53-.77l11.33-15.87c.53-.74,1.58-.83,2.22-.2l7.54,7.34c.45.44,1.14.47,1.63.09l10.07-7.97c.36-.28.6-.69.67-1.15l1.19-7.93c.07-.48.36-.91.78-1.16l7.24-4.28c.3-.18.56-.44.75-.74l7.34-11.89c.41-.67,1.36-.73,1.85-.13l8.62,10.44c.48.59,1.19.93,1.95.93l5.62.06c.66.01,1.27.36,1.6.94l7.82,13.46c.24.42.81.51,1.17.19l11.9-10.72c.61-.55,1.54-.48,2.07.14l8.89,10.57c.48.56,1.18.89,1.91.9l4.33.04c.81.01,1.56.43,2,1.12l19.99,31.91c.13.2-.14.43-.32.26Z"/>
</svg>