<?xml version="1.0" encoding="UTF-8"?>
<svg id="Layer_1" data-name="Layer 1" xmlns="http://www.w3.org/2000/svg" viewBox="0 0 816.17 250">
  <defs>
    <style>
      .cls-1 {
        fill: #414042;
        stroke-width: 0px;
      }
    </style>
  </defs>
  <g>
    <g>
      <path class="cls-1" d="m357.98,95.19l-5.96,16.34c-7.52-3.89-20.12-6.92-31.89-6.92-19.71,0-27.87,3.8-29.52,8.32-1.59,4.37,4.38,5.38,13.75,6.2l20.77,1.83c21.43,1.87,30.93,6.92,25.69,21.29l-.03.1c-7.64,20.96-34.64,25-54.82,25s-32.62-6.1-39.05-10.09l6.4-17.54c10.03,7.69,22.45,12.26,38.36,12.26,14.85,0,28.31-2.5,30.62-8.84,1.72-4.71-4.39-6.3-15.52-7.26l-18.73-1.63c-20.68-1.83-30.67-7.5-25.89-20.62,5.5-15.09,24.84-24.37,51.18-24.37,20.96,0,32.42,4.81,34.65,5.96Z"/>
      <path class="cls-1" d="m383.87,91.89h85.3l-5.43,14.9h-85.3l5.43-14.9Zm-10.58,29.03h80.5l-5.43,14.9h-62.23l-4.18,11.47c-.54,1.47.22,2.66,1.69,2.66h64.38l-5.43,14.9h-67.34c-9.92,0-15.03-8.04-11.41-17.96l9.47-25.97Z"/>
      <path class="cls-1" d="m628.06,91.89h85.3l-5.43,14.9h-85.3l5.43-14.9Zm-10.58,29.03h80.5l-5.43,14.9h-62.23l-4.18,11.47c-.54,1.47.22,2.66,1.69,2.66h64.38l-5.43,14.9h-67.34c-9.92,0-15.03-8.04-11.41-17.96l9.47-25.97Z"/>
      <path class="cls-1" d="m486.85,91.89h64.07c6.83,0,13.24.34,17.78,3.7,5.9,4.37,6.86,12.69,3.85,20.96-3.57,9.81-12.48,19.08-23.09,22.59l5.48,25.72h-21.1l-5.03-23.65h-41.67l-8.62,23.65h-18.27l14.23-39.03h61.14c7.26,0,15.34-.14,18.67-9.28,3.33-9.13-4.65-9.28-11.9-9.28h-61.14l5.61-15.38Z"/>
      <path class="cls-1" d="m610.63,91.89l-26.6,72.97h-18.27l26.6-72.97h18.27Z"/>
      <path class="cls-1" d="m805.49,95.19l-5.96,16.34c-7.52-3.89-20.12-6.92-31.89-6.92-19.71,0-27.87,3.8-29.52,8.32-1.59,4.37,4.38,5.38,13.75,6.2l20.77,1.83c21.43,1.87,30.93,6.92,25.69,21.29l-.03.1c-7.64,20.96-34.64,25-54.82,25s-32.62-6.1-39.05-10.09l6.4-17.54c10.03,7.69,22.45,12.26,38.36,12.26,14.85,0,28.31-2.5,30.62-8.84,1.72-4.71-4.39-6.3-15.52-7.26l-18.73-1.63c-20.68-1.83-30.67-7.5-25.89-20.62,5.5-15.09,24.84-24.37,51.18-24.37,20.96,0,32.42,4.81,34.65,5.96Z"/>
    </g>
    <polygon class="cls-1" points="165.95 210.8 240.06 210.8 210.72 126.13 344.73 8.78 275.08 8.78 195.65 79.04 185.47 45.77 111.14 45.77 139.89 128.03 0 250 74.37 250 155.5 175.32 165.95 210.8"/>
  </g>
  <g>
    <path class="cls-1" d="m566.48,47.6l7.98-21.91-15.15,21.91h-10.49l.8-21.91-7.98,21.91h-11.45l14.13-38.82h16.31l-.91,23.34,16.53-23.34h15.76l-14.13,38.82h-11.4Z"/>
    <path class="cls-1" d="m593.34,47.6h-12.65l29.69-38.82h15.61l.43,38.82h-12.85l.09-8.25h-14.21l-6.12,8.25Zm20.58-25.65l.38-3.24-2.02,3.34-6.84,9.14h8.38l.1-9.24Z"/>
    <path class="cls-1" d="m651.97,47.6h-22.49l14.13-38.82h21.89c7.23,0,11.07,1.72,12.31,5.06,1.26,3.29.53,6.54-2.04,13.61-3,8.25-4.67,11.3-8.05,14.54-3.72,3.59-8.56,5.6-15.74,5.6Zm12-20.15c1.02-2.8,2.02-6.39,1.41-7.47-.95-1.67-2.24-2.11-5.25-2.11h-7.68l-7.49,20.59h7.68c3.11,0,5-.64,6.93-2.21,1.5-1.23,3.26-5.65,4.41-8.8Z"/>
    <path class="cls-1" d="m711.26,47.6h-12.65l29.69-38.82h15.61l.43,38.82h-12.85l.09-8.25h-14.21l-6.12,8.25Zm20.58-25.65l.38-3.24-2.02,3.34-6.84,9.14h8.38l.1-9.24Z"/>
    <polygon class="cls-1" points="774.07 47.58 791.52 47.58 784.61 27.64 816.17 0 799.77 0 781.06 16.55 778.66 8.71 761.16 8.71 767.93 28.08 734.98 56.81 752.5 56.81 771.61 39.22 774.07 47.58"/>
    <path class="cls-1" d="m698.7,8.69c-3.39,9.55-8.52,24-9.52,25.8-1.49,2.66-4.53,4.18-7.99,4.18-5.27-.05-6.13-.34-6.13-.34l-3.08,9.09s3.95.66,10.76.49c8.63,0,15.45-4.37,18.31-12.24l10.14-26.98h-12.49Z"/>
  </g>
</svg>