<?xml version="1.0" encoding="UTF-8"?>
<svg id="Layer_1" data-name="Layer 1" xmlns="http://www.w3.org/2000/svg" viewBox="0 0 729.77 250">
  <defs>
    <style>
      .cls-1 {
        fill: #414042;
        stroke-width: 0px;
      }
    </style>
  </defs>
  <path class="cls-1" d="m332.15,24.93c-38.18-19.82-92.78-14.59-136.79,3.65-1.22.49-4.74,12.04-5.84,12.52l4.26-21.16c2.07-10.34-6.08-19.94-16.9-19.94H2.14C-.41,0,.32,1.95.44,2.19c2.43,5.84,17.39,23.47,52.77,26.99.24.61-6.44,1.09-10.94,1.22-.61,0-1.09.73-.73,1.22,4.86,7.3,21.04,19.94,50.71,21.89.24.49-7.3,1.22-11.19,1.34-.61,0-.97.61-.73,1.22,4.01,7.3,13.98,18.12,37.69,21.52.24,0,.12.24-.12.24-5.84.12-10.94-.24-15.44-.97-.24,0-.36,0-.61.12-14.11,9.48-26.39,18.73-32.71,24.2-2.19,1.95-1.58,4.38,1.46,4.74l17.51,1.95c1.22.12,1.58,1.7.61,2.43C49.32,139.11,14.06,185.19.32,205.37c-1.09,1.58.85,3.53,2.55,2.55,47.54-27.12,70.53-36.11,116.25-53.5,2.43-.85,2.19-4.13-.36-4.5l-11.79-2.43c-1.58-.24-2.07-2.19-.73-3.04,65.42-41.1,139.47-39.64,144.09-34.65.49.49.61,1.34.24,1.95-4.99,10.46-18.24,25.05-18.24,25.05l-9.48.49c-.97,0-1.82.73-2.07,1.7-2.8,11.43,0,16.42,1.82,18.97.73.97,1.95,1.09,2.92.36,8.15-5.96,11.19-9.85,11.19-9.85l41.1-31.49c1.46-1.22,1.95-2.68,1.34-4.26-8.63-23.95-40.98-40.25-40.98-40.25,13.13-18.24,37.94-20.55,43.41-18.48,10.7,3.89,24.2,42.92,24.2,42.92.36,1.09,1.09,1.95,2.19,2.43,4.13,1.7,10.34-.97,12.77-2.19,2.19-1.09,4.13-3.16,4.13-5.35V31.98l7.17-4.38c1.22-.97,1.09-2.19.12-2.68"/>
  <path class="cls-1" d="m310.02,141.66h-17.39c-1.22,0-2.19-.97-2.19-2.19v-9.36c0-1.09.85-2.19,2.19-2.19h49.61c1.22,0,2.19.97,2.19,2.19v9.36c0,1.09-.85,2.19-2.19,2.19h-17.39v63.72c0,1.09-.97,2.19-2.19,2.19h-10.58c-1.09,0-2.19-.97-2.19-2.19v-63.72h.12Z"/>
  <path class="cls-1" d="m464.69,126.82c22.74,0,40.86,18.24,40.86,40.98s-18.12,40.73-40.86,40.73-40.73-18.12-40.73-40.73,18.12-40.98,40.73-40.98m0,67c14.35,0,26.14-11.67,26.14-26.02s-11.79-26.26-26.14-26.26-26.02,11.92-26.02,26.26c.12,14.35,11.79,26.02,26.02,26.02"/>
  <path class="cls-1" d="m506.28,197.47l5.96-6.08c1.22-1.09,2.43-.85,3.4.12,1.46,1.58,3.77,3.65,7.54,3.65,4.38,0,9.12-3.65,9.12-11.43v-53.62c0-1.09.85-2.19,2.19-2.19h10.7c1.22,0,2.19.97,2.19,2.19v53.62c0,15.81-10.58,24.93-23.83,24.93-9.85,0-15.32-5.96-17.27-8.27-.73-.97-.61-2.07,0-2.92"/>
  <path class="cls-1" d="m555.4,204.52l35.38-76.48c.36-.73.85-1.22,1.95-1.22h1.09c1.09,0,1.58.61,1.95,1.22l35.02,76.48c.73,1.46-.24,2.92-1.95,2.92h-9.85c-1.7,0-2.55-.73-3.28-2.31l-5.59-12.28h-33.93l-5.59,12.28c-.49,1.09-1.46,2.31-3.28,2.31h-9.85c-1.82,0-2.8-1.46-2.07-2.92m49-24.2l-11.31-25.05h-.36l-11.19,25.05h22.86Z"/>
  <path class="cls-1" d="m641,128.89c0-1.09.97-2.07,2.07-2.07h1.7c.85,0,1.58.36,2.19.97l46.33,49.25h.12v-46.94c0-1.09.85-2.19,2.19-2.19h10.46c1.22,0,2.19.97,2.19,2.19v76.48c0,1.09-.97,2.07-2.07,2.07h-1.58c-.85,0-1.58-.36-2.19-.97l-46.57-51.19h-.12v48.88c0,1.09-.85,2.19-2.19,2.19h-10.34c-1.22,0-2.19-.97-2.19-2.19v-76.48Z"/>
  <path class="cls-1" d="m398.91,175.34c9.85-4.01,16.78-12.52,16.78-22.98,0-13.5-11.19-24.44-24.81-24.44h-32.47c-1.22,0-2.19.97-2.19,2.19v75.15c0,1.09.85,2.19,2.19,2.19h10.46c1.09,0,2.19-.97,2.19-2.19l.12-63.72h18.48c6.08,0,11.19,4.74,11.31,10.82.12,6.44-5.23,11.79-11.19,11.79h-7.54c-2.07,0-3.4,2.19-2.43,4.01l19.09,38.18c.24.49.85.97,1.82.97h11.92c1.95,0,2.68-1.82,1.95-3.28l-15.69-28.7Z"/>
  <path class="cls-1" d="m309.9,222.76c0-.36.36-.73.73-.73h9c4.62,0,8.27,3.16,8.27,7.3,0,3.04-2.43,5.35-4.38,6.2,2.07.73,5.11,2.8,5.11,6.44,0,4.38-3.77,7.54-8.51,7.54h-9.48c-.49,0-.73-.36-.73-.73v-26.02Zm9.24,10.82c1.95,0,3.4-1.58,3.4-3.53s-1.34-3.28-3.4-3.28h-4.26v6.93h4.26v-.12Zm.61,11.31c1.95,0,3.53-1.58,3.53-3.53s-1.95-3.4-4.01-3.4h-4.26v7.05h4.74v-.12Z"/>
  <path class="cls-1" d="m333.73,248.54l12.28-26.51c.12-.24.36-.49.73-.49h.36c.36,0,.61.24.61.49l12.16,26.51c.24.49-.12.97-.73.97h-3.4c-.61,0-.85-.24-1.09-.73l-1.95-4.26h-11.79l-1.95,4.26c-.12.36-.49.73-1.09.73h-3.4c-.61,0-.97-.49-.73-.97m17.02-8.39l-4.01-8.63h-.12l-3.89,8.63h8.03Z"/>
  <path class="cls-1" d="m368.02,226.78h-5.96c-.49,0-.73-.36-.73-.73v-3.28c0-.36.36-.73.73-.73h17.14c.49,0,.73.36.73.73v3.28c0,.36-.36.73-.73.73h-5.96v22.01c0,.36-.36.73-.73.73h-3.65c-.36,0-.73-.36-.73-.73v-22.01h-.12Z"/>
  <path class="cls-1" d="m391.73,226.78h-6.08c-.49,0-.73-.36-.73-.73v-3.28c0-.36.36-.73.73-.73h17.14c.49,0,.73.36.73.73v3.28c0,.36-.36.73-.73.73h-5.96v22.01c0,.36-.36.73-.73.73h-3.65c-.36,0-.73-.36-.73-.73v-22.01Z"/>
  <path class="cls-1" d="m411.68,222.76c0-.36.36-.73.73-.73h16.05c.49,0,.73.36.73.73v3.28c0,.36-.36.73-.73.73h-11.67v6.44h9.73c.36,0,.73.36.73.73v3.28c0,.49-.36.73-.73.73h-9.73v6.93h11.67c.49,0,.73.36.73.73v3.28c0,.36-.36.73-.73.73h-16.05c-.49,0-.73-.36-.73-.73v-26.14Z"/>
  <path class="cls-1" d="m437.94,222.76c0-.36.36-.73.73-.73h11.19c4.74,0,8.51,3.77,8.51,8.51,0,3.65-2.43,6.57-5.84,7.9l5.35,9.97c.24.49,0,1.09-.73,1.09h-4.13c-.36,0-.61-.24-.61-.36l-5.23-10.46h-4.38v9.97c0,.36-.36.73-.73.73h-3.65c-.49,0-.73-.36-.73-.73v-25.9h.24Zm11.55,11.79c2.07,0,3.89-1.82,3.89-4.01,0-2.07-1.82-3.77-3.89-3.77h-6.44v7.78h6.44Z"/>
  <path class="cls-1" d="m471.74,236.38l-9-13.13c-.36-.49,0-1.09.61-1.09h4.01c.36,0,.49.24.61.36l6.32,9,6.32-9c.12-.12.36-.36.61-.36h4.01c.61,0,.97.61.61,1.09l-9.12,13.13v12.52c0,.36-.36.73-.73.73h-3.65c-.49,0-.73-.36-.73-.73v-12.52h.12Z"/>
  <path class="cls-1" d="m518.19,221.67c4.01,0,6.81,1.22,9.48,3.65.36.36.36.73,0,1.09l-2.43,2.43c-.24.36-.73.36-.97,0-1.7-1.46-3.89-2.31-6.08-2.31-4.99,0-8.75,4.26-8.75,9.12s3.77,9.12,8.75,9.12c2.31,0,4.38-.85,5.96-2.19.36-.24.73-.24.97,0l2.43,2.55c.36.24.24.73,0,1.09-2.68,2.55-6.08,3.77-9.61,3.77-7.9,0-14.23-6.2-14.23-14.11.24-7.9,6.57-14.23,14.47-14.23"/>
  <path class="cls-1" d="m546.4,221.67c7.9,0,14.11,6.32,14.11,14.23s-6.32,14.11-14.11,14.11-14.11-6.2-14.11-14.11,6.32-14.23,14.11-14.23m0,23.22c4.99,0,9-4.01,9-9s-4.13-9.12-9-9.12-9,4.13-9,9.12c0,4.86,4.13,9,9,9"/>
  <path class="cls-1" d="m570.24,222.28c0-.36.24-.61.73-.61h.61c.36,0,.61.12.61.36l8.63,18.6h.12l8.63-18.6c.12-.24.36-.36.73-.36h.61c.49,0,.73.24.73.61l4.62,26.39c.12.61-.24.85-.73.85h-3.53c-.36,0-.61-.36-.73-.61l-2.31-14.96h-.12l-6.93,15.44c-.12.24-.36.49-.73.49h-.73c-.36,0-.61-.24-.61-.49l-6.93-15.44h-.12l-2.31,14.96c0,.24-.36.61-.73.61h-3.53c-.49,0-.85-.36-.73-.85l4.74-26.39Z"/>
  <path class="cls-1" d="m604.04,222.76c0-.36.36-.73.73-.73h9.24c4.86,0,8.75,3.89,8.75,8.63s-4.01,8.88-8.75,8.88h-4.86v9.24c0,.36-.36.73-.73.73h-3.65c-.49,0-.73-.36-.73-.73v-26.02Zm9.61,12.04c2.19,0,4.01-1.82,4.01-4.13,0-2.19-1.82-3.77-4.01-3.77h-4.62v7.9h4.62Z"/>
  <path class="cls-1" d="m624.47,248.54l12.28-26.51c.12-.24.36-.49.73-.49h.36c.36,0,.61.24.61.49l12.16,26.51c.24.49-.12.97-.73.97h-3.4c-.61,0-.85-.24-1.09-.73l-1.95-4.26h-11.79l-1.95,4.26c-.12.36-.49.73-1.09.73h-3.4c-.61,0-.85-.49-.73-.97m17.02-8.39l-3.89-8.63h-.12l-3.89,8.63h7.9Z"/>
  <path class="cls-1" d="m656.57,222.4c0-.36.36-.73.73-.73h.97l16.29,17.39h0v-16.29c0-.36.36-.73.73-.73h3.65c.36,0,.73.36.73.73v26.51c0,.36-.36.73-.73.73h-.97l-16.29-18.12h0v16.9c0,.36-.36.73-.73.73h-3.53c-.36,0-.73-.36-.73-.73v-26.39h-.12Z"/>
  <path class="cls-1" d="m693.78,236.38l-9-13.13c-.36-.49,0-1.09.61-1.09h4.01c.36,0,.49.24.61.36l6.32,9,6.32-9c.12-.12.36-.36.61-.36h4.01c.61,0,.97.61.61,1.09l-9.12,13.13v12.52c0,.36-.36.73-.73.73h-3.65c-.49,0-.73-.36-.73-.73v-12.52h.12Z"/>
  <path class="cls-1" d="m723.2,128.04c3.65,0,6.57,2.92,6.57,6.57s-2.92,6.57-6.57,6.57-6.57-2.92-6.57-6.57c0-3.65,2.92-6.57,6.57-6.57m0,11.67c2.8,0,5.11-2.31,5.11-5.11s-2.31-5.11-5.11-5.11-5.11,2.31-5.11,5.11c0,2.8,2.31,5.11,5.11,5.11m-2.43-8.15c0-.24.12-.36.36-.36h2.8c1.09,0,2.19.85,2.19,2.31,0,1.22-.73,1.7-1.34,2.07l.85,1.95c.12.24,0,.49-.36.49h-.97c-.12,0-.24-.12-.36-.24l-.85-2.07h-.97v1.95c0,.24-.12.36-.36.36h-.85c-.24,0-.36-.12-.36-.36v-6.08h.24Zm2.92,2.68c.49,0,.73-.36.73-.73,0-.49-.36-.73-.73-.73h-1.46v1.46h1.46Z"/>
</svg>